<svg width="24" height="24" viewBox="0 0 24 24" fill="none" xmlns="http://www.w3.org/2000/svg">
<path fill-rule="evenodd" clip-rule="evenodd" d="M3.5 2.5H20.5V21.5H3.5V2.5ZM12 7.75C10.4812 7.75 9.25 8.98122 9.25 10.5C9.25 12.0188 10.4812 13.25 12 13.25C13.5188 13.25 14.75 12.0188 14.75 10.5C14.75 8.98122 13.5188 7.75 12 7.75ZM8.25 10.5C8.25 8.42893 9.92893 6.75 12 6.75C14.0711 6.75 15.75 8.42893 15.75 10.5C15.75 12.5711 14.0711 14.25 12 14.25C9.92893 14.25 8.25 12.5711 8.25 10.5ZM8.5 16H15.5V17H8.5V16Z" fill="black"/>
</svg>
